<svg xmlns="http://www.w3.org/2000/svg" width="1202" height="725">
  <defs>
    <path id="g" d="M230.921 508.477h100.921v46.528H230.921z"/>
    <path id="f" d="M231.94 440.503h82.398v45.452H231.94z"/>
    <path id="e" d="M1176.343 605.035h67.779v44.233h-67.779z"/>
    <path id="d" d="M1301.547 608.688h90.05v60.197h-90.05z"/>
    <path id="c" d="M1084.936 636.491h95.432v46.779h-95.432z"/>
    <path id="b" d="M994.697 642.798h70.898v47.729h-70.898z"/>
    <path id="a" d="M750.258 640.195h105.077v43.019H750.258z"/>
  </defs>
  <path d="M4.345 16.755h1185.346v707.48H4.345z" style="fill:#fff;stroke:#000;stroke-width:.0755906"/>
  <path fill="#fff" stroke="#000" stroke-miterlimit="10" stroke-width="3" d="M444.795 404.737h90v110h-90z" paint-order="fill stroke markers"/>
  <text x="494.295" y="417.237" dominant-baseline="alphabetic" font-family="sans-serif" font-size="11" text-anchor="middle" text-decoration="normal">Sequencer</text>
  <text x="449.295" y="479.237" dominant-baseline="alphabetic" font-family="sans-serif" font-size="12" text-decoration="normal">Clock</text>
  <text x="449.295" y="439.237" dominant-baseline="alphabetic" font-family="sans-serif" font-size="12" text-decoration="normal">Halt</text>
  <text x="494.295" y="508.237" dominant-baseline="alphabetic" font-family="sans-serif" font-size="12" text-anchor="middle" text-decoration="normal">Reset</text>
  <text x="529.295" y="499.237" dominant-baseline="alphabetic" font-family="sans-serif" font-size="12" text-anchor="end" text-decoration="normal">Jump</text>
  <text x="529.295" y="479.237" dominant-baseline="alphabetic" font-family="sans-serif" font-size="12" text-anchor="end" text-decoration="normal">Move</text>
  <text x="529.295" y="459.237" dominant-baseline="alphabetic" font-family="sans-serif" font-size="12" text-anchor="end" text-decoration="normal">Print</text>
  <text x="529.295" y="439.237" dominant-baseline="alphabetic" font-family="sans-serif" font-size="12" text-anchor="end" text-decoration="normal">Read</text>
  <path fill="green" d="M537.295 494.237a3 3 0 1 1 0-.003zm0-20a3 3 0 1 1 0-.003zm0-20a3 3 0 1 1 0-.003zm0-20a3 3 0 1 1 0-.003zm-90 40a3 3 0 1 1 0-.003zm0-40a3 3 0 1 1 0-.003zm50 80a3 3 0 1 1 0-.003z" paint-order="stroke fill markers"/>
  <text x="230.295" y="523.237" dominant-baseline="alphabetic" font-family="sans-serif" font-size="14" text-anchor="end" text-decoration="normal">Reset</text>
  <path fill="#ddd" stroke="#353535" stroke-miterlimit="10" stroke-width="5" d="M212.887 532.868a12 12 0 1 1-.012 0" paint-order="stroke fill markers"/>
  <text x="404.295" y="259.237" dominant-baseline="alphabetic" font-family="sans-serif" font-size="14" text-anchor="middle" text-decoration="normal">Halted</text>
  <path fill="none" stroke="#e3e4e5" stroke-miterlimit="10" stroke-width="3" d="M404.795 304.737v20" paint-order="fill stroke markers"/>
  <path fill="red" fill-opacity=".8" stroke="#d3d4d5" stroke-miterlimit="10" d="M395.795 299.737v-15a9 9 0 0 1 18 0v15l3 3 .203.305a22 22 0 0 1-24.407 0l3.204-3.305" paint-order="stroke fill markers"/>
  <path fill="#fff" stroke="#000" stroke-miterlimit="10" stroke-width="3" d="M384.795 464.737h20v20h-20z" paint-order="fill stroke markers"/>
  <path fill="none" stroke="green" stroke-miterlimit="10" stroke-width="2" d="M388.295 474.237v5h6v-10h6v5" paint-order="fill stroke markers"/>
  <path fill="#fff" stroke="#000" stroke-miterlimit="10" stroke-width="3" d="M694.795 274.737h40v40h-40z" paint-order="fill stroke markers"/>
  <text x="714.295" y="269.237" dominant-baseline="alphabetic" font-family="sans-serif" font-size="14" text-anchor="middle" text-decoration="normal">State</text>
  <path fill="none" stroke="#000" stroke-miterlimit="10" stroke-width="3" d="m694.795 299.737 5 5-5 5" paint-order="fill stroke markers"/>
  <text x="714.295" y="299.237" fill="green" dominant-baseline="alphabetic" font-family="sans-serif" font-size="20" text-anchor="middle" text-decoration="normal">1</text>
  <path fill="#fff" stroke="#000" stroke-miterlimit="10" stroke-width="3" d="M694.795 174.737h40v40h-40z" paint-order="fill stroke markers"/>
  <text x="714.295" y="169.237" dominant-baseline="alphabetic" font-family="sans-serif" font-size="14" text-anchor="middle" text-decoration="normal">Symbol Read</text>
  <path fill="none" stroke="#000" stroke-miterlimit="10" stroke-width="3" d="m694.795 199.737 5 5-5 5" paint-order="fill stroke markers"/>
  <text x="714.295" y="199.237" fill="green" dominant-baseline="alphabetic" font-family="sans-serif" font-size="20" text-anchor="middle" text-decoration="normal">0</text>
  <path fill="#fff" stroke="#000" stroke-miterlimit="10" stroke-width="3" d="M924.795 224.737h120v80h-120Z" paint-order="fill stroke markers"/>
  <path fill="#90ee90" stroke="gray" stroke-miterlimit="10" d="M1037.295 234.237a3 3 0 1 1 0-.003" paint-order="fill stroke markers"/>
  <text x="984.295" y="258.237" dominant-baseline="alphabetic" font-family="sans-serif" font-size="12" text-anchor="middle" text-decoration="normal">1K x 10b</text>
  <text x="984.295" y="278.237" dominant-baseline="alphabetic" font-family="sans-serif" font-size="12" text-anchor="middle" text-decoration="normal">EEPROM</text>
  <text y="4" dominant-baseline="alphabetic" font-family="sans-serif" font-size="14" text-anchor="middle" text-decoration="normal" transform="translate(936.295 244.237)">A</text>
  <text y="4" dominant-baseline="alphabetic" font-family="sans-serif" font-size="14" text-anchor="middle" text-decoration="normal" transform="translate(936.295 264.237)">DI</text>
  <text y="4" dominant-baseline="alphabetic" font-family="sans-serif" font-size="14" text-anchor="middle" text-decoration="normal" transform="translate(936.295 284.237)">W</text>
  <text y="4" dominant-baseline="alphabetic" font-family="sans-serif" font-size="14" text-anchor="middle" text-decoration="normal" transform="translate(1029.295 264.237)">DO</text>
  <path fill="none" stroke="#000" stroke-miterlimit="10" stroke-width="3" d="m274.795 354.737-10 10h-100m0 0v20m20-20v20m20-20v20m20-20v20m20-20v20m20-20v20" paint-order="fill stroke markers"/>
  <text y="4" dominant-baseline="alphabetic" font-family="sans-serif" font-size="14" text-anchor="middle" text-decoration="normal" transform="rotate(90 -102.971 277.266)">0</text>
  <text y="4" dominant-baseline="alphabetic" font-family="sans-serif" font-size="14" text-anchor="middle" text-decoration="normal" transform="rotate(90 -92.971 287.266)">1</text>
  <text y="4" dominant-baseline="alphabetic" font-family="sans-serif" font-size="14" text-anchor="middle" text-decoration="normal" transform="rotate(90 -82.971 297.266)">2</text>
  <text y="4" dominant-baseline="alphabetic" font-family="sans-serif" font-size="14" text-anchor="middle" text-decoration="normal" transform="rotate(90 -72.971 307.266)">3</text>
  <text y="4" dominant-baseline="alphabetic" font-family="sans-serif" font-size="14" text-anchor="middle" text-decoration="normal" transform="rotate(90 -62.971 317.266)">4</text>
  <text y="4" dominant-baseline="alphabetic" font-family="sans-serif" font-size="14" text-anchor="middle" text-decoration="normal" transform="rotate(90 -52.971 327.266)">5</text>
  <path fill="none" stroke="#000" stroke-miterlimit="10" stroke-width="3" d="m1084.795 324.737-10 10h-80m0 0v20m20-20v20m20-20v20m20-20v20m20-20v20" paint-order="fill stroke markers"/>
  <text y="4" dominant-baseline="alphabetic" font-family="sans-serif" font-size="14" text-anchor="middle" text-decoration="normal" transform="rotate(90 327.029 677.266)">0:5</text>
  <text y="4" dominant-baseline="alphabetic" font-family="sans-serif" font-size="14" text-anchor="middle" text-decoration="normal" transform="rotate(90 337.029 687.266)">6</text>
  <text y="4" dominant-baseline="alphabetic" font-family="sans-serif" font-size="14" text-anchor="middle" text-decoration="normal" transform="rotate(90 347.029 697.266)">7</text>
  <text y="4" dominant-baseline="alphabetic" font-family="sans-serif" font-size="14" text-anchor="middle" text-decoration="normal" transform="rotate(90 357.029 707.266)">8</text>
  <text y="4" dominant-baseline="alphabetic" font-family="sans-serif" font-size="14" text-anchor="middle" text-decoration="normal" transform="rotate(90 367.029 717.266)">9</text>
  <path fill="none" stroke="#000" stroke-miterlimit="10" stroke-width="3" d="m894.795 234.737-10-10v-40m0 0h-20m20 20h-20m20 20h-20" paint-order="fill stroke markers"/>
  <text y="4" dominant-baseline="alphabetic" font-family="sans-serif" font-size="14" text-anchor="middle" text-decoration="normal" transform="translate(868.295 194.237)">0</text>
  <text y="4" dominant-baseline="alphabetic" font-family="sans-serif" font-size="14" text-anchor="middle" text-decoration="normal" transform="translate(868.295 214.237)">1:6</text>
  <text y="4" dominant-baseline="alphabetic" font-family="sans-serif" font-size="14" text-anchor="middle" text-decoration="normal" transform="translate(868.295 234.237)">7:9</text>
  <path fill="#fff" stroke="#000" stroke-miterlimit="10" stroke-width="3" d="M814.795 494.737v10a20 20 0 1 0 40 0v-10zm90 0v10a20 20 0 1 0 40 0v-10zm-620-90h10a20 20 0 0 1 0 40h-10zm69.5 9.5c10 0 25 10 30 20-5 10-20 20-30 20 10-20 10-20 0-40zm440.394-138.484h60v20h-60z" paint-order="fill stroke markers"/>
  <text x="824.189" y="310.253" dominant-baseline="alphabetic" font-family="sans-serif" font-size="14" text-anchor="middle" text-decoration="normal">Program Select</text>
  <text x="804.133" y="292.106" fill="green" dominant-baseline="alphabetic" font-family="sans-serif" font-size="20" text-anchor="middle" text-decoration="normal">0</text>
  <text x="824.133" y="292.106" fill="green" dominant-baseline="alphabetic" font-family="sans-serif" font-size="20" text-anchor="middle" text-decoration="normal">1</text>
  <text x="844.133" y="292.106" fill="green" dominant-baseline="alphabetic" font-family="sans-serif" font-size="20" text-anchor="middle" text-decoration="normal">0</text>
  <path fill="none" stroke="green" stroke-linecap="round" stroke-miterlimit="10" stroke-width="3" d="M834.795 603.544V533.61" paint-order="fill stroke markers" style="fill:red"/>
  <path fill="none" stroke="green" stroke-linecap="round" stroke-miterlimit="10" stroke-width="3" d="M924.795 604.237v-80" paint-order="fill stroke markers"/>
  <path fill="none" stroke="#000" stroke-linecap="round" stroke-miterlimit="10" stroke-width="3" d="M1044.295 264.737h40" paint-order="fill stroke markers"/>
  <path fill="none" stroke="green" stroke-linecap="round" stroke-miterlimit="10" stroke-width="3" d="M444.295 474.737h-40" paint-order="fill stroke markers"/>
  <path fill="none" stroke="#90ee90" stroke-linecap="round" stroke-miterlimit="10" stroke-width="3" d="M444.295 434.737h-40" paint-order="fill stroke markers"/>
  <path fill="none" stroke="green" stroke-linecap="round" stroke-miterlimit="10" stroke-width="3" d="M228.406 545.702h386.691" paint-order="fill stroke markers"/>
  <path fill="none" stroke="#000" stroke-linecap="round" stroke-miterlimit="10" stroke-width="3" d="M274.295 354.737h370" paint-order="fill stroke markers"/>
  <path fill="none" stroke="#90ee90" stroke-linecap="round" stroke-miterlimit="10" stroke-width="3" d="M164.795 384.237v70m20-70v60m20-60v50m20-50v40m20-40v30m20-30v20" paint-order="fill stroke markers"/>
  <path fill="none" stroke="green" stroke-linecap="round" stroke-miterlimit="10" stroke-width="3" d="M824.795 494.237v-40m20 40v-40m-10 70v10m9.5-79.5h170m-99.5 39.5v-20m20 20v-20m-.5.5h100m40.5 125.731V454.03" paint-order="fill stroke markers"/>
  <circle cx="1075.052" cy="602.543" r="4.861" style="fill:red;stroke:#000;stroke-width:.0755906"/>
  <circle cx="1055.134" cy="602.543" r="4.861" style="fill:red;stroke:#000;stroke-width:.0755906"/>
  <circle cx="106.477" cy="473.647" r="4.861" style="fill:red;stroke:#000;stroke-width:.0755906"/>
  <circle cx="107.046" cy="485.597" r="4.861" style="fill:red;stroke:#000;stroke-width:.0755906"/>
  <path fill="none" stroke="green" stroke-linecap="round" stroke-miterlimit="10" stroke-width="3" d="M494.795 545.352v-31.82m520-59.295v-100m40 244.183V414.705m-20 59.532v-120" paint-order="fill stroke markers"/>
  <path fill="none" stroke="#000" stroke-linecap="round" stroke-miterlimit="10" stroke-width="3" d="M1084.795 324.237v-60m-90.5 90.5h-350" paint-order="fill stroke markers"/>
  <path fill="none" stroke="green" stroke-linecap="round" stroke-miterlimit="10" stroke-width="3" d="M1054.795 354.237v60m20-60v100m-380.5-149.5h-30" paint-order="fill stroke markers"/>
  <path fill="none" stroke="#000" stroke-linecap="round" stroke-miterlimit="10" stroke-width="3" d="M694.295 284.737h-50m90 0h30" paint-order="fill stroke markers"/>
  <path fill="none" stroke="green" stroke-linecap="round" stroke-miterlimit="10" stroke-width="3" d="M724.795 314.237v100" paint-order="fill stroke markers"/>
  <path fill="none" stroke="green" stroke-linecap="round" stroke-miterlimit="10" stroke-width="2.736" d="M614.234 545.367V412.272" paint-order="fill stroke markers"/>
  <path fill="none" stroke="green" stroke-linecap="round" stroke-miterlimit="10" stroke-width="3" d="M534.295 494.737h130m-130-20h380m-380-20h290" paint-order="fill stroke markers"/>
  <path fill="none" stroke="#90ee90" stroke-linecap="round" stroke-miterlimit="10" stroke-width="3" d="M534.295 434.737h40m120-230h-120" paint-order="fill stroke markers"/>
  <path fill="none" stroke="green" stroke-linecap="round" stroke-miterlimit="10" stroke-width="3" d="M694.295 184.737h-100m130.5 29.5v30m-10-30v10" paint-order="fill stroke markers"/>
  <path fill="none" stroke="#90ee90" stroke-linecap="round" stroke-miterlimit="10" stroke-width="3" d="M574.795 434.237v-50m0-180v180" paint-order="fill stroke markers"/>
  <path fill="none" stroke="green" stroke-linecap="round" stroke-miterlimit="10" stroke-width="3" d="M594.795 184.237v40m70 80v190" paint-order="fill stroke markers"/>
  <path fill="none" stroke="#000" stroke-linecap="round" stroke-miterlimit="10" stroke-width="3" d="M644.795 284.237v70" paint-order="fill stroke markers"/>
  <path fill="none" stroke="green" stroke-linecap="round" stroke-miterlimit="10" stroke-width="3" d="M724.295 244.737h-110m.5-.5v170m99.5-189.5h-120" paint-order="fill stroke markers"/>
  <path fill="none" stroke="green" stroke-linecap="round" stroke-miterlimit="10" stroke-width="2.974" d="M594.795 224.57v377.694" paint-order="fill stroke markers"/>
  <path fill="none" stroke="green" stroke-linecap="round" stroke-miterlimit="10" stroke-width="3" d="M724.295 414.737h-110" paint-order="fill stroke markers"/>
  <path fill="none" stroke="#90ee90" stroke-linecap="round" stroke-miterlimit="10" stroke-width="3" d="M284.295 414.737h-40m40-10h-20m20.5-10.5v-10m-.5 40.5h-60m60 10h-80m80 10h-100m100 10h-120m150-30h40m-70-40h290m-169.5-60.5v110m-.5.5h-20" paint-order="fill stroke markers"/>
  <path fill="none" stroke="green" stroke-linecap="round" stroke-miterlimit="10" stroke-width="3" d="M354.295 434.737h-30m30 10h-20m-9.5-10.5v40m.305.5H107.273m227.522-30.5v40m.275.5H107.966" paint-order="fill stroke markers"/>
  <path fill="none" stroke="#000" stroke-linecap="round" stroke-miterlimit="10" stroke-width="3" d="M864.295 204.737h-100m100 20h-40" paint-order="fill stroke markers"/>
  <path fill="none" stroke="#000" stroke-linecap="round" stroke-miterlimit="10" stroke-width="3.67" d="M824.795 269.881v-44.899" paint-order="fill stroke markers"/>
  <path fill="none" stroke="#000" stroke-linecap="round" stroke-miterlimit="10" stroke-width="3" d="M764.795 284.237v-80" paint-order="fill stroke markers"/>
  <path fill="none" stroke="green" stroke-linecap="round" stroke-miterlimit="10" stroke-width="3" d="M734.295 184.737h50m80 0h-80" paint-order="fill stroke markers"/>
  <path fill="none" stroke="#000" stroke-linecap="round" stroke-miterlimit="10" stroke-width="3" d="M894.795 234.237v10m29.5.5h-30" paint-order="fill stroke markers"/>
  <path fill="green" d="M927.295 244.237a3 3 0 1 1 0-.003zm0 20a3 3 0 1 1 0-.003zm0 20a3 3 0 1 1 0-.003zm60 20a3 3 0 1 1 0-.003zm-20 0a3 3 0 1 1 0-.003zm80-40a3 3 0 1 1 0-.003zm-219.745 8.946a3 3 0 1 1 0-.003zM447.295 474.237a3 3 0 1 1 0-.003zm0-40a3 3 0 1 1 0-.003zm-40 40a3 3 0 1 1 0-.003zm-178.013 68.316a3 3 0 1 1-.003 0zm48.013-188.316a3 3 0 1 1 0-.003zm-110 30a3 3 0 1 1 0-.003zm20 0a3 3 0 1 1 0-.003zm20 0a3 3 0 1 1 0-.003zm20 0a3 3 0 1 1 0-.003zm20 0a3 3 0 1 1 0-.003zm20 0a3 3 0 1 1 0-.003zm560 110a3 3 0 1 1 0-.003zm20 0a3 3 0 1 1 0-.003zm-10 30a3 3 0 1 1 0-.003zm10-70a3 3 0 1 1 0-.003zm70 40a3 3 0 1 1 0-.003zm20 0a3 3 0 1 1 0-.003zm-10 30a3 3 0 1 1 0-.003zm10-50a3 3 0 1 1 0-.003zM613.98 543.028a3 3 0 1 1-.003 0zm403.315-88.791a3 3 0 1 1 0-.003zm20 20a3 3 0 1 1 0-.003zm50-150a3 3 0 1 1 0-.003zm-90 30a3 3 0 1 1 0-.003zm20 0a3 3 0 1 1 0-.003zm20 0a3 3 0 1 1 0-.003zm20 0a3 3 0 1 1 0-.003zm20 0a3 3 0 1 1 0-.003z" paint-order="stroke fill markers"/>
  <path d="M1087.295 264.237a3 3 0 1 1 0-.003z" paint-order="stroke fill markers"/>
  <path fill="green" d="M697.295 304.237a3 3 0 1 1 0-.003zm0-20a3 3 0 1 1 0-.003zm40 0a3 3 0 1 1 0-.003zm0 20a3 3 0 1 1 0-.003zm-10 10a3 3 0 1 1 0-.003zm-10 0a3 3 0 1 1 0-.003zm-10 0a3 3 0 1 1 0-.003zm-210 200a3 3 0 1 1 0-.003zm40-20a3 3 0 1 1 0-.003zm0-20a3 3 0 1 1 0-.003zm0-20a3 3 0 1 1 0-.003zm0-20a3 3 0 1 1 0-.003zm380 40a3 3 0 1 1 0-.003zm-90-20a3 3 0 1 1 0-.003zm-130-250a3 3 0 1 1 0-.003zm0-20a3 3 0 1 1 0-.003zm40 0a3 3 0 1 1 0-.003zm0 20a3 3 0 1 1 0-.003zm-10 10a3 3 0 1 1 0-.003zm-10 0a3 3 0 1 1 0-.003zm-10 0a3 3 0 1 1 0-.003z" paint-order="stroke fill markers"/>
  <path fill="#90ee90" d="M577.295 434.237a3 3 0 1 1 0-.003zm0-230a3 3 0 1 1 0-.003z" paint-order="stroke fill markers"/>
  <path fill="green" d="M597.295 184.237a3 3 0 1 1 0-.003zm70 120a3 3 0 1 1 0-.003z" paint-order="stroke fill markers"/>
  <path d="M767.295 284.237a3 3 0 1 1 0-.003zm-120 0a3 3 0 1 1 0-.003z" paint-order="stroke fill markers"/>
  <path fill="green" d="M727.295 244.237a3 3 0 1 1 0-.003zm-110 0a3 3 0 1 1 0-.003zm100-20a3 3 0 1 1 0-.003zm-120 0a3 3 0 1 1 0-.003zm130 190a3 3 0 1 1 0-.003zm-60 80a3 3 0 1 1 0-.003z" paint-order="stroke fill markers"/>
  <path d="M647.295 354.237a3 3 0 1 1 0-.003z" paint-order="stroke fill markers"/>
  <path fill="green" d="M498.46 545.425a3 3 0 1 1 0-.003zm118.835-131.188a3 3 0 1 1 0-.003zm-330 0a3 3 0 1 1 0-.003zm0-10a3 3 0 1 1 0-.003zm0-10a3 3 0 1 1 0-.003zm0 30a3 3 0 1 1 0-.003zm0 10a3 3 0 1 1 0-.003zm0 10a3 3 0 1 1 0-.003zm0 10a3 3 0 1 1 0-.003zm30-30a3 3 0 1 1 0-.003z" paint-order="stroke fill markers"/>
  <path fill="#90ee90" d="M287.295 384.237a3 3 0 1 1 0-.003zm290 0a3 3 0 1 1 0-.003z" paint-order="stroke fill markers"/>
  <path fill="green" d="M407.295 324.237a3 3 0 1 1 0-.003z" paint-order="stroke fill markers"/>
  <path fill="#90ee90" d="M407.295 434.237a3 3 0 1 1 0-.003z" paint-order="stroke fill markers"/>
  <path fill="green" d="M357.295 424.237a3 3 0 1 1 0-.003zm0 10a3 3 0 1 1 0-.003zm0 10a3 3 0 1 1 0-.003zm30-10a3 3 0 1 1 0-.003z" paint-order="stroke fill markers"/>
  <path fill="#90ee90" d="M167.295 454.237a3 3 0 1 1 0-.003zm80-40a3 3 0 1 1 0-.003zm20-10a3 3 0 1 1 0-.003zm-60 30a3 3 0 1 1 0-.003zm20-10a3 3 0 1 1 0-.003zm-40 20a3 3 0 1 1 0-.003z" paint-order="stroke fill markers"/>
  <path fill="green" d="M327.295 434.237a3 3 0 1 1 0-.003zm0 40a3 3 0 1 1 0-.003zm10-30a3 3 0 1 1 0-.003zm0 40a3 3 0 1 1 0-.003zm-480 350a3 3 0 1 1 0-.003zm1040-600a3 3 0 1 1 0-.003zm-30-50a3 3 0 1 1 0-.003zm0 20a3 3 0 1 1 0-.003zm0 20a3 3 0 1 1 0-.003z" paint-order="stroke fill markers"/>
  <path d="M767.295 204.237a3 3 0 1 1 0-.003zm60 20a3 3 0 1 1 0-.003zM897.295 244.237a3 3 0 1 1 0-.003z" paint-order="stroke fill markers"/>
  <circle cx="594.748" cy="602.543" r="4.861" style="fill:red;stroke:#000;stroke-width:.0755906"/>
  <circle cx="835.093" cy="602.543" r="4.861" style="fill:red;stroke:#000;stroke-width:.0755906"/>
  <circle cx="925.384" cy="602.543" r="4.861" style="fill:red;stroke:#000;stroke-width:.0755906"/>
  <text xml:space="preserve" style="font-style:normal;font-weight:400;font-size:14px;line-height:1.25;font-family:sans-serif;letter-spacing:0;word-spacing:0;white-space:pre;shape-inside:url(#a);display:inline;fill:#000;fill-opacity:1;stroke:none" transform="translate(-194.096 -23.942)"><tspan x="750.258" y="652.934">Symbol Read</tspan></text>
  <text xml:space="preserve" style="font-style:normal;font-weight:400;font-size:14px;line-height:1.25;font-family:sans-serif;letter-spacing:0;word-spacing:0;white-space:pre;shape-inside:url(#b);display:inline;fill:#000;fill-opacity:1;stroke:none" transform="translate(-178.096 -26.865)"><tspan x="994.697" y="655.537">Write</tspan></text>
  <text xml:space="preserve" style="font-style:normal;font-weight:400;font-size:14px;line-height:1.25;font-family:sans-serif;letter-spacing:0;word-spacing:0;white-space:pre;shape-inside:url(#c);display:inline;fill:#000;fill-opacity:1;stroke:none" transform="translate(-178.096 -20.883)"><tspan x="1084.936" y="649.228">Move</tspan></text>
  <text xml:space="preserve" style="font-style:normal;font-weight:400;font-size:14px;line-height:1.25;font-family:sans-serif;letter-spacing:0;word-spacing:0;white-space:pre;shape-inside:url(#d);display:inline;fill:#000;fill-opacity:1;stroke:none" transform="translate(-226.605 7.636)"><tspan x="1301.547" y="621.426">DirLeft</tspan></text>
  <text xml:space="preserve" style="font-style:normal;font-weight:400;font-size:14px;line-height:1.25;font-family:sans-serif;letter-spacing:0;word-spacing:0;white-space:pre;shape-inside:url(#e);display:inline;fill:#000;fill-opacity:1;stroke:none" transform="translate(-157.64 10.896)"><tspan x="1176.344" y="617.773">Print</tspan></text>
  <text xml:space="preserve" style="font-style:normal;font-weight:400;font-size:14px;line-height:1.25;font-family:sans-serif;letter-spacing:0;word-spacing:0;white-space:pre;shape-inside:url(#f);display:inline;fill:#000;fill-opacity:1;stroke:none" transform="translate(-177.074 21.497)"><tspan x="231.939" y="453.242">OvL</tspan></text>
  <text xml:space="preserve" style="font-style:normal;font-weight:400;font-size:14px;line-height:1.25;font-family:sans-serif;letter-spacing:0;word-spacing:0;white-space:pre;shape-inside:url(#g);display:inline;fill:#000;fill-opacity:1;stroke:none" transform="translate(-178.86 -27.02)"><tspan x="230.922" y="521.215">OvR</tspan></text>
  <path d="M596.896 216.4h122.33v13.171h-122.33zM581.889 214.335h11.027v20.246h-11.027z" style="fill:#fff;fill-opacity:1;stroke:#fff;stroke-width:.0755906"/>
</svg>
