<svg xmlns="http://www.w3.org/2000/svg" width="930" height="330">
  <path fill="#fff" d="M0 0h930v330H0z"/>
  <path fill="#fff" d="M0 0h930v330H0Z" paint-order="stroke fill markers"/>
  <path fill="#fff" stroke="#000" stroke-miterlimit="10" stroke-width="3" d="M210.5 170.5h40v40h-40z" paint-order="fill stroke markers"/>
  <path fill="none" stroke="#000" stroke-miterlimit="10" stroke-width="3" d="m210.5 195.5 5 5-5 5" paint-order="fill stroke markers"/>
  <text x="230" y="195" fill="green" dominant-baseline="alphabetic" font-family="sans-serif" font-size="20" text-anchor="middle" text-decoration="normal">0</text>
  <path fill="#fff" stroke="#000" stroke-miterlimit="10" stroke-width="3" d="M540.5 170.5h40v40h-40z" paint-order="fill stroke markers"/>
  <path fill="none" stroke="#000" stroke-miterlimit="10" stroke-width="3" d="m540.5 195.5 5 5-5 5" paint-order="fill stroke markers"/>
  <text x="560" y="195" fill="green" dominant-baseline="alphabetic" font-family="sans-serif" font-size="20" text-anchor="middle" text-decoration="normal">0</text>
  <path fill="#fff" stroke="#000" stroke-miterlimit="10" stroke-width="3" d="M700.5 170.5h40v40h-40z" paint-order="fill stroke markers"/>
  <path fill="none" stroke="#000" stroke-miterlimit="10" stroke-width="3" d="m700.5 195.5 5 5-5 5" paint-order="fill stroke markers"/>
  <text x="720" y="195" fill="green" dominant-baseline="alphabetic" font-family="sans-serif" font-size="20" text-anchor="middle" text-decoration="normal">0</text>
  <path fill="#fff" stroke="#000" stroke-miterlimit="10" stroke-width="3" d="M620.5 170.5h40v40h-40z" paint-order="fill stroke markers"/>
  <path fill="none" stroke="#000" stroke-miterlimit="10" stroke-width="3" d="m620.5 195.5 5 5-5 5" paint-order="fill stroke markers"/>
  <text x="640" y="195" fill="green" dominant-baseline="alphabetic" font-family="sans-serif" font-size="20" text-anchor="middle" text-decoration="normal">0</text>
  <path fill="#fff" stroke="#000" stroke-miterlimit="10" stroke-width="3" d="M460.5 170.5h40v40h-40z" paint-order="fill stroke markers"/>
  <path fill="none" stroke="#000" stroke-miterlimit="10" stroke-width="3" d="m460.5 195.5 5 5-5 5" paint-order="fill stroke markers"/>
  <text x="480" y="195" fill="green" dominant-baseline="alphabetic" font-family="sans-serif" font-size="20" text-anchor="middle" text-decoration="normal">0</text>
  <path fill="#fff" stroke="#000" stroke-miterlimit="10" stroke-width="3" d="M780.5 170.5h40v40h-40z" paint-order="fill stroke markers"/>
  <path fill="none" stroke="#000" stroke-miterlimit="10" stroke-width="3" d="m780.5 195.5 5 5-5 5" paint-order="fill stroke markers"/>
  <text x="800" y="195" fill="green" dominant-baseline="alphabetic" font-family="sans-serif" font-size="20" text-anchor="middle" text-decoration="normal">0</text>
  <path fill="#fff" stroke="#000" stroke-miterlimit="10" stroke-width="3" d="M380.5 170.5h40v40h-40z" paint-order="fill stroke markers"/>
  <path fill="none" stroke="#000" stroke-miterlimit="10" stroke-width="3" d="m380.5 195.5 5 5-5 5" paint-order="fill stroke markers"/>
  <text x="400" y="195" fill="green" dominant-baseline="alphabetic" font-family="sans-serif" font-size="20" text-anchor="middle" text-decoration="normal">0</text>
  <path fill="#fff" stroke="#000" stroke-miterlimit="10" stroke-width="3" d="M300.5 170.5h40v40h-40z" paint-order="fill stroke markers"/>
  <path fill="none" stroke="#000" stroke-miterlimit="10" stroke-width="3" d="m300.5 195.5 5 5-5 5" paint-order="fill stroke markers"/>
  <text x="320" y="195" fill="green" dominant-baseline="alphabetic" font-family="sans-serif" font-size="20" text-anchor="middle" text-decoration="normal">0</text>
  <path fill="#fff" stroke="#000" stroke-miterlimit="10" stroke-width="3" d="M140.5 210.5h10a20 20 0 0 1 0 40h-10zM90.5 230.5l20 10-20 10z" paint-order="fill stroke markers"/>
  <path fill="none" stroke="#000" stroke-miterlimit="10" stroke-width="3" d="M120 240a5 5 0 1 1 0-.005" paint-order="fill stroke markers"/>
  <text x="890" y="125" dominant-baseline="alphabetic" font-family="sans-serif" font-size="14" text-decoration="normal">Jump</text>
  <path fill="#fff" stroke="#00f" stroke-miterlimit="10" stroke-width="3" d="M860.5 110.5h20v20h-20z" paint-order="fill stroke markers"/>
  <text x="870" y="125" fill="green" dominant-baseline="alphabetic" font-family="sans-serif" font-size="20" text-anchor="middle" text-decoration="normal">0</text>
  <text x="890" y="105" dominant-baseline="alphabetic" font-family="sans-serif" font-size="14" text-decoration="normal">Move</text>
  <path fill="#fff" stroke="#00f" stroke-miterlimit="10" stroke-width="3" d="M860.5 90.5h20v20h-20z" paint-order="fill stroke markers"/>
  <text x="870" y="105" fill="green" dominant-baseline="alphabetic" font-family="sans-serif" font-size="20" text-anchor="middle" text-decoration="normal">0</text>
  <text x="890" y="85" dominant-baseline="alphabetic" font-family="sans-serif" font-size="14" text-decoration="normal">Print</text>
  <path fill="#fff" stroke="#00f" stroke-miterlimit="10" stroke-width="3" d="M860.5 70.5h20v20h-20z" paint-order="fill stroke markers"/>
  <text x="870" y="85" fill="green" dominant-baseline="alphabetic" font-family="sans-serif" font-size="20" text-anchor="middle" text-decoration="normal">0</text>
  <text x="890" y="65" dominant-baseline="alphabetic" font-family="sans-serif" font-size="14" text-decoration="normal">Read</text>
  <path fill="#fff" stroke="#00f" stroke-miterlimit="10" stroke-width="3" d="M860.5 50.5h20v20h-20z" paint-order="fill stroke markers"/>
  <text x="870" y="65" fill="green" dominant-baseline="alphabetic" font-family="sans-serif" font-size="20" text-anchor="middle" text-decoration="normal">0</text>
  <path fill="#fff" stroke="#000" stroke-miterlimit="10" stroke-width="3" d="M50.5 210.5h20v20h-20z" paint-order="fill stroke markers"/>
  <text x="40" y="225" dominant-baseline="alphabetic" font-family="sans-serif" font-size="14" text-anchor="end" text-decoration="normal">Clock</text>
  <text x="60" y="225" fill="green" dominant-baseline="alphabetic" font-family="sans-serif" font-size="20" text-anchor="middle" text-decoration="normal">1</text>
  <path fill="#fff" stroke="#000" stroke-miterlimit="10" stroke-width="3" d="M50.5 230.5h20v20h-20z" paint-order="fill stroke markers"/>
  <text x="40" y="245" dominant-baseline="alphabetic" font-family="sans-serif" font-size="14" text-anchor="end" text-decoration="normal">Halt</text>
  <text x="60" y="245" fill="green" dominant-baseline="alphabetic" font-family="sans-serif" font-size="20" text-anchor="middle" text-decoration="normal">0</text>
  <path fill="#fff" stroke="#000" stroke-miterlimit="10" stroke-width="3" d="M50.5 260.5h20v20h-20z" paint-order="fill stroke markers"/>
  <text x="40" y="275" dominant-baseline="alphabetic" font-family="sans-serif" font-size="14" text-anchor="end" text-decoration="normal">Reset</text>
  <text x="60" y="275" fill="green" dominant-baseline="alphabetic" font-family="sans-serif" font-size="20" text-anchor="middle" text-decoration="normal">0</text>
  <path fill="none" stroke="#90ee90" stroke-linecap="round" stroke-miterlimit="10" stroke-width="3" d="M210 200.5h-20" paint-order="fill stroke markers"/>
  <path fill="none" stroke="green" stroke-linecap="round" stroke-miterlimit="10" stroke-width="3" d="M210 180.5h-20M250 180.5h50M240.5 210v60M230.5 210v60" paint-order="fill stroke markers"/>
  <path fill="none" stroke="#90ee90" stroke-linecap="round" stroke-miterlimit="10" stroke-width="3" d="M540 200.5h-20" paint-order="fill stroke markers"/>
  <path fill="none" stroke="green" stroke-linecap="round" stroke-miterlimit="10" stroke-width="3" d="M540 180.5h-20M580 180.5h40M570.5 210v60" paint-order="fill stroke markers"/>
  <path fill="none" stroke="#90ee90" stroke-linecap="round" stroke-miterlimit="10" stroke-width="3" d="M700 200.5h-20" paint-order="fill stroke markers"/>
  <path fill="none" stroke="green" stroke-linecap="round" stroke-miterlimit="10" stroke-width="3" d="M700 180.5h-20M740 180.5h40M730.5 210v60M190.5 150v30M190 150.5h650" paint-order="fill stroke markers"/>
  <path fill="none" stroke="#90ee90" stroke-linecap="round" stroke-miterlimit="10" stroke-width="3" d="M190.5 200v30M190 230.5h-20M190 230.5h90M600 230.5h-80M600.5 230v-30M600 230.5h80" paint-order="fill stroke markers"/>
  <path fill="none" stroke="green" stroke-linecap="round" stroke-miterlimit="10" stroke-width="3" d="M90 240.5H70" paint-order="fill stroke markers"/>
  <path fill="none" stroke="#90ee90" stroke-linecap="round" stroke-miterlimit="10" stroke-width="3" d="M120 240.5h20M70 220.5h70" paint-order="fill stroke markers"/>
  <path fill="none" stroke="green" stroke-linecap="round" stroke-miterlimit="10" stroke-width="3" d="M70 270.5h160M240 270.5h-10M240 270.5h90M860 120.5h-20M860 100.5H680M860 80.5H520" paint-order="fill stroke markers"/>
  <path fill="none" stroke="#90ee90" stroke-linecap="round" stroke-miterlimit="10" stroke-width="3" d="M520.5 200v30M520 230.5h-80" paint-order="fill stroke markers"/>
  <path fill="none" stroke="green" stroke-linecap="round" stroke-miterlimit="10" stroke-width="3" d="M570 270.5h80M570 270.5h-80M730 270.5h-80M730 270.5h80" paint-order="fill stroke markers"/>
  <path fill="none" stroke="#90ee90" stroke-linecap="round" stroke-miterlimit="10" stroke-width="3" d="M600 200.5h20" paint-order="fill stroke markers"/>
  <path fill="none" stroke="green" stroke-linecap="round" stroke-miterlimit="10" stroke-width="3" d="M840.5 150v30M840.5 150v-30M660 180.5h20M650.5 210v60" paint-order="fill stroke markers"/>
  <path fill="none" stroke="#90ee90" stroke-linecap="round" stroke-miterlimit="10" stroke-width="3" d="M460 200.5h-20" paint-order="fill stroke markers"/>
  <path fill="none" stroke="green" stroke-linecap="round" stroke-miterlimit="10" stroke-width="3" d="M460 180.5h-40M500 180.5h20M490.5 210v60" paint-order="fill stroke markers"/>
  <path fill="none" stroke="#90ee90" stroke-linecap="round" stroke-miterlimit="10" stroke-width="3" d="M780 200.5h-20" paint-order="fill stroke markers"/>
  <path fill="none" stroke="green" stroke-linecap="round" stroke-miterlimit="10" stroke-width="3" d="M820 180.5h20M810.5 210v60" paint-order="fill stroke markers"/>
  <path fill="none" stroke="#90ee90" stroke-linecap="round" stroke-miterlimit="10" stroke-width="3" d="M760.5 230v-30M760 230.5h-80M680.5 200v30M440.5 200v30M440 230.5h-80" paint-order="fill stroke markers"/>
  <path fill="none" stroke="green" stroke-linecap="round" stroke-miterlimit="10" stroke-width="3" d="M490 270.5h-80M520.5 80v100M680.5 100v80" paint-order="fill stroke markers"/>
  <path fill="none" stroke="#90ee90" stroke-linecap="round" stroke-miterlimit="10" stroke-width="3" d="M380 200.5h-20" paint-order="fill stroke markers"/>
  <path fill="none" stroke="green" stroke-linecap="round" stroke-miterlimit="10" stroke-width="3" d="M380 180.5h-20M410.5 210v60" paint-order="fill stroke markers"/>
  <path fill="none" stroke="#90ee90" stroke-linecap="round" stroke-miterlimit="10" stroke-width="3" d="M360.5 200v30M360 230.5h-80" paint-order="fill stroke markers"/>
  <path fill="none" stroke="green" stroke-linecap="round" stroke-miterlimit="10" stroke-width="3" d="M410 270.5h-80" paint-order="fill stroke markers"/>
  <path fill="none" stroke="#90ee90" stroke-linecap="round" stroke-miterlimit="10" stroke-width="3" d="M300 200.5h-20" paint-order="fill stroke markers"/>
  <path fill="none" stroke="green" stroke-linecap="round" stroke-miterlimit="10" stroke-width="3" d="M340 180.5h20M330.5 210v60" paint-order="fill stroke markers"/>
  <path fill="none" stroke="#90ee90" stroke-linecap="round" stroke-miterlimit="10" stroke-width="3" d="M280.5 200v30" paint-order="fill stroke markers"/>
  <path fill="none" stroke="green" stroke-linecap="round" stroke-miterlimit="10" stroke-width="3" d="M360.5 60v120M360 60.5h500" paint-order="fill stroke markers"/>
  <path fill="green" d="M213 200a3 3 0 1 1 0-.003zM213 180a3 3 0 1 1 0-.003zM253 180a3 3 0 1 1 0-.003zM253 200a3 3 0 1 1 0-.003zM243 210a3 3 0 1 1 0-.003zM233 210a3 3 0 1 1 0-.003zM223 210a3 3 0 1 1 0-.003zM543 200a3 3 0 1 1 0-.003zM543 180a3 3 0 1 1 0-.003zM583 180a3 3 0 1 1 0-.003zM583 200a3 3 0 1 1 0-.003zM573 210a3 3 0 1 1 0-.003zM563 210a3 3 0 1 1 0-.003zM553 210a3 3 0 1 1 0-.003zM703 200a3 3 0 1 1 0-.003zM703 180a3 3 0 1 1 0-.003zM743 180a3 3 0 1 1 0-.003zM743 200a3 3 0 1 1 0-.003zM733 210a3 3 0 1 1 0-.003zM723 210a3 3 0 1 1 0-.003zM713 210a3 3 0 1 1 0-.003zM193 150a3 3 0 1 1 0-.003zM193 180a3 3 0 1 1 0-.003z" paint-order="stroke fill markers"/>
  <path fill="#90ee90" d="M193 200a3 3 0 1 1 0-.003zM193 230a3 3 0 1 1 0-.003zM603 230a3 3 0 1 1 0-.003z" paint-order="stroke fill markers"/>
  <path fill="green" d="M93 240a3 3 0 1 1 0-.003zM123 240a3 3 0 1 1 0-.003zM73 220a3 3 0 1 1 0-.003zM73 240a3 3 0 1 1 0-.003zM73 270a3 3 0 1 1 0-.003zM243 270a3 3 0 1 1 0-.003zM863 120a3 3 0 1 1 0-.003zM863 100a3 3 0 1 1 0-.003zM863 80a3 3 0 1 1 0-.003z" paint-order="stroke fill markers"/>
  <path fill="#90ee90" d="M523 200a3 3 0 1 1 0-.003zM523 230a3 3 0 1 1 0-.003z" paint-order="stroke fill markers"/>
  <path fill="green" d="M573 270a3 3 0 1 1 0-.003zM733 270a3 3 0 1 1 0-.003z" paint-order="stroke fill markers"/>
  <path fill="#90ee90" d="M603 200a3 3 0 1 1 0-.003z" paint-order="stroke fill markers"/>
  <path fill="green" d="M843 150a3 3 0 1 1 0-.003zM143 220a3 3 0 1 1 0-.003zM143 240a3 3 0 1 1 0-.003zM173 230a3 3 0 1 1 0-.003zM233 270a3 3 0 1 1 0-.003zM623 200a3 3 0 1 1 0-.003zM623 180a3 3 0 1 1 0-.003zM663 180a3 3 0 1 1 0-.003zM663 200a3 3 0 1 1 0-.003zM653 210a3 3 0 1 1 0-.003zM643 210a3 3 0 1 1 0-.003zM633 210a3 3 0 1 1 0-.003zM463 200a3 3 0 1 1 0-.003zM463 180a3 3 0 1 1 0-.003zM503 180a3 3 0 1 1 0-.003zM503 200a3 3 0 1 1 0-.003zM493 210a3 3 0 1 1 0-.003zM483 210a3 3 0 1 1 0-.003zM473 210a3 3 0 1 1 0-.003zM783 200a3 3 0 1 1 0-.003zM783 180a3 3 0 1 1 0-.003zM823 180a3 3 0 1 1 0-.003zM823 200a3 3 0 1 1 0-.003zM813 210a3 3 0 1 1 0-.003zM803 210a3 3 0 1 1 0-.003zM793 210a3 3 0 1 1 0-.003zM843 180a3 3 0 1 1 0-.003z" paint-order="stroke fill markers"/>
  <path fill="#90ee90" d="M763 230a3 3 0 1 1 0-.003zM763 200a3 3 0 1 1 0-.003zM683 200a3 3 0 1 1 0-.003zM683 230a3 3 0 1 1 0-.003z" paint-order="stroke fill markers"/>
  <path fill="green" d="M653 270a3 3 0 1 1 0-.003z" paint-order="stroke fill markers"/>
  <path fill="#90ee90" d="M443 200a3 3 0 1 1 0-.003zM443 230a3 3 0 1 1 0-.003z" paint-order="stroke fill markers"/>
  <path fill="green" d="M493 270a3 3 0 1 1 0-.003zM523 80a3 3 0 1 1 0-.003zM843 120a3 3 0 1 1 0-.003zM813 270a3 3 0 1 1 0-.003zM683 100a3 3 0 1 1 0-.003zM683 180a3 3 0 1 1 0-.003zM523 180a3 3 0 1 1 0-.003zM383 200a3 3 0 1 1 0-.003zM383 180a3 3 0 1 1 0-.003zM423 180a3 3 0 1 1 0-.003zM423 200a3 3 0 1 1 0-.003zM413 210a3 3 0 1 1 0-.003zM403 210a3 3 0 1 1 0-.003zM393 210a3 3 0 1 1 0-.003z" paint-order="stroke fill markers"/>
  <path fill="#90ee90" d="M363 200a3 3 0 1 1 0-.003zM363 230a3 3 0 1 1 0-.003z" paint-order="stroke fill markers"/>
  <path fill="green" d="M413 270a3 3 0 1 1 0-.003zM303 200a3 3 0 1 1 0-.003zM303 180a3 3 0 1 1 0-.003zM343 180a3 3 0 1 1 0-.003zM343 200a3 3 0 1 1 0-.003zM333 210a3 3 0 1 1 0-.003zM323 210a3 3 0 1 1 0-.003zM313 210a3 3 0 1 1 0-.003z" paint-order="stroke fill markers"/>
  <path fill="#90ee90" d="M283 200a3 3 0 1 1 0-.003zM283 230a3 3 0 1 1 0-.003z" paint-order="stroke fill markers"/>
  <path fill="green" d="M333 270a3 3 0 1 1 0-.003zM363 60a3 3 0 1 1 0-.003zM363 180a3 3 0 1 1 0-.003zM863 60a3 3 0 1 1 0-.003z" paint-order="stroke fill markers"/>
</svg>
